<svg xmlns="http://www.w3.org/2000/svg" width="104" height="104" viewBox="0 0 78 78"><clipPath id="a"><path transform="matrix(1 0 0 -1 0 78)" d="M0 78h78V0H0z" fill-rule="evenodd"/></clipPath><g clip-path="url(#a)"><clipPath id="b"><path transform="matrix(1 0 0 -1 0 78)" d="M47.42 62.853a13.799 13.799 0 0 1-1.652-1.416l-4.977-4.994H16.269c-2.266-.012-3.043-.173-3.837-.6a3.446 3.446 0 0 1-1.449-1.454c-.441-.829-.597-1.638-.597-4.132V18.315c.012-2.275.173-3.055.597-3.852a3.446 3.446 0 0 1 1.45-1.454c.825-.443 1.632-.6 4.116-.6h37.878c2.484 0 3.29.157 4.116.6.633.34 1.11.82 1.449 1.454.442.83.597 1.639.597 4.132v18.023l4.954 4.97a13.82 13.82 0 0 1 1.434 1.69l-.002-24.683c0-3.46-.348-5.27-1.352-7.154a9.842 9.842 0 0 0-4.068-4.084C59.677 6.35 57.875 6 54.427 6H16.549c-3.448 0-5.25.35-7.128 1.357a9.842 9.842 0 0 0-4.069 4.084C4.348 13.325 4 15.134 4 18.595v31.662c0 3.461.348 5.27 1.352 7.155a9.842 9.842 0 0 0 4.069 4.083c1.877 1.008 3.68 1.358 7.128 1.358z"/></clipPath><g clip-path="url(#b)"><path d="M3 14.147h64.977V73H3z"/></g></g><clipPath id="c"><path transform="matrix(1 0 0 -1 0 78)" d="M0 78h78V0H0z" fill-rule="evenodd"/></clipPath><g clip-path="url(#c)"><clipPath id="d"><path transform="matrix(1 0 0 -1 0 78)" d="m55.456 71 16.473-.39a2.742 2.742 0 0 0 2.672-2.68l.398-16.545a2.742 2.742 0 0 0-2.67-2.813 2.741 2.741 0 0 0-2.802 2.68l-.229 9.504-23.097-23.184a3.185 3.185 0 0 0-4.515 0 3.213 3.213 0 0 0 0 4.532l23.094 23.18-9.453.223a2.742 2.742 0 0 0-2.67 2.637l-.002.174a2.741 2.741 0 0 0 2.8 2.681z"/></clipPath><g clip-path="url(#d)"><path d="M39.44 5.965h36.596v36.714H39.439z"/></g></g></svg>